<mxfile host="app.diagrams.net" modified="2022-07-06T06:46:31.732Z" agent="5.0 (X11; Linux x86_64) AppleWebKit/537.36 (KHTML, like Gecko) Chrome/101.0.0.0 Safari/537.36" etag="MG9MNJ9chDApuXgLvyDV" version="20.0.3" type="github">
  <diagram id="l1K9O1dgBkEUOhcivguU" name="Page-1">
    <mxGraphModel dx="1350" dy="773" grid="1" gridSize="10" guides="1" tooltips="1" connect="1" arrows="1" fold="1" page="1" pageScale="1" pageWidth="850" pageHeight="1100" math="0" shadow="0">
      <root>
        <mxCell id="0" />
        <mxCell id="1" parent="0" />
        <mxCell id="zz37QBjWHWpGYe9e6wSS-3" value="" style="edgeStyle=orthogonalEdgeStyle;rounded=0;orthogonalLoop=1;jettySize=auto;html=1;" edge="1" parent="1" source="zz37QBjWHWpGYe9e6wSS-1" target="zz37QBjWHWpGYe9e6wSS-2">
          <mxGeometry relative="1" as="geometry" />
        </mxCell>
        <mxCell id="zz37QBjWHWpGYe9e6wSS-1" value="配置类型" style="rounded=1;whiteSpace=wrap;html=1;" vertex="1" parent="1">
          <mxGeometry x="260" y="80" width="120" height="60" as="geometry" />
        </mxCell>
        <mxCell id="zz37QBjWHWpGYe9e6wSS-5" value="" style="edgeStyle=orthogonalEdgeStyle;rounded=0;orthogonalLoop=1;jettySize=auto;html=1;" edge="1" parent="1" source="zz37QBjWHWpGYe9e6wSS-2" target="zz37QBjWHWpGYe9e6wSS-4">
          <mxGeometry relative="1" as="geometry" />
        </mxCell>
        <mxCell id="zz37QBjWHWpGYe9e6wSS-2" value="配置文件路径" style="rounded=1;whiteSpace=wrap;html=1;" vertex="1" parent="1">
          <mxGeometry x="260" y="180" width="120" height="60" as="geometry" />
        </mxCell>
        <mxCell id="zz37QBjWHWpGYe9e6wSS-7" value="" style="edgeStyle=orthogonalEdgeStyle;rounded=0;orthogonalLoop=1;jettySize=auto;html=1;exitX=0;exitY=0.75;exitDx=0;exitDy=0;" edge="1" parent="1" source="zz37QBjWHWpGYe9e6wSS-13" target="zz37QBjWHWpGYe9e6wSS-14">
          <mxGeometry relative="1" as="geometry" />
        </mxCell>
        <mxCell id="zz37QBjWHWpGYe9e6wSS-4" value="源文件备份一份，读取需要配置的文件" style="rounded=1;whiteSpace=wrap;html=1;" vertex="1" parent="1">
          <mxGeometry x="260" y="270" width="120" height="60" as="geometry" />
        </mxCell>
        <mxCell id="zz37QBjWHWpGYe9e6wSS-9" value="" style="edgeStyle=orthogonalEdgeStyle;rounded=0;orthogonalLoop=1;jettySize=auto;html=1;" edge="1" parent="1" source="zz37QBjWHWpGYe9e6wSS-6">
          <mxGeometry relative="1" as="geometry">
            <mxPoint x="320" y="730" as="targetPoint" />
          </mxGeometry>
        </mxCell>
        <mxCell id="zz37QBjWHWpGYe9e6wSS-6" value="按行查找到所需修改的参数行或头，可采用map的形式搜索key,value" style="whiteSpace=wrap;html=1;rounded=1;" vertex="1" parent="1">
          <mxGeometry x="260" y="623" width="120" height="60" as="geometry" />
        </mxCell>
        <mxCell id="zz37QBjWHWpGYe9e6wSS-11" value="" style="edgeStyle=orthogonalEdgeStyle;rounded=0;orthogonalLoop=1;jettySize=auto;html=1;" edge="1" parent="1" source="zz37QBjWHWpGYe9e6wSS-8" target="zz37QBjWHWpGYe9e6wSS-10">
          <mxGeometry relative="1" as="geometry" />
        </mxCell>
        <mxCell id="zz37QBjWHWpGYe9e6wSS-8" value="修改相关行的参数值,多个参数的修改，采用链表指针的方式，循环查找" style="whiteSpace=wrap;html=1;rounded=1;" vertex="1" parent="1">
          <mxGeometry x="260" y="838" width="120" height="70" as="geometry" />
        </mxCell>
        <mxCell id="zz37QBjWHWpGYe9e6wSS-10" value="文件修改保存" style="whiteSpace=wrap;html=1;rounded=1;" vertex="1" parent="1">
          <mxGeometry x="260" y="948" width="120" height="60" as="geometry" />
        </mxCell>
        <mxCell id="zz37QBjWHWpGYe9e6wSS-19" style="edgeStyle=orthogonalEdgeStyle;rounded=0;orthogonalLoop=1;jettySize=auto;html=1;entryX=0.5;entryY=0;entryDx=0;entryDy=0;" edge="1" parent="1" source="zz37QBjWHWpGYe9e6wSS-13" target="zz37QBjWHWpGYe9e6wSS-15">
          <mxGeometry relative="1" as="geometry">
            <mxPoint x="420" y="520" as="targetPoint" />
            <Array as="points">
              <mxPoint x="425" y="480" />
            </Array>
          </mxGeometry>
        </mxCell>
        <mxCell id="zz37QBjWHWpGYe9e6wSS-20" style="edgeStyle=orthogonalEdgeStyle;rounded=0;orthogonalLoop=1;jettySize=auto;html=1;exitX=1;exitY=0.25;exitDx=0;exitDy=0;entryX=0.5;entryY=0;entryDx=0;entryDy=0;" edge="1" parent="1" source="zz37QBjWHWpGYe9e6wSS-13" target="zz37QBjWHWpGYe9e6wSS-16">
          <mxGeometry relative="1" as="geometry" />
        </mxCell>
        <mxCell id="zz37QBjWHWpGYe9e6wSS-13" value="配置文件的格式" style="shape=process;whiteSpace=wrap;html=1;backgroundOutline=1;" vertex="1" parent="1">
          <mxGeometry x="260" y="400" width="120" height="60" as="geometry" />
        </mxCell>
        <mxCell id="zz37QBjWHWpGYe9e6wSS-14" value="yaml(id : value)" style="ellipse;whiteSpace=wrap;html=1;" vertex="1" parent="1">
          <mxGeometry x="120" y="520" width="120" height="80" as="geometry" />
        </mxCell>
        <mxCell id="zz37QBjWHWpGYe9e6wSS-15" value="cfg(A=B)" style="rounded=0;whiteSpace=wrap;html=1;" vertex="1" parent="1">
          <mxGeometry x="365" y="530" width="120" height="60" as="geometry" />
        </mxCell>
        <mxCell id="zz37QBjWHWpGYe9e6wSS-16" value="conf" style="ellipse;whiteSpace=wrap;html=1;aspect=fixed;" vertex="1" parent="1">
          <mxGeometry x="600" y="520" width="80" height="80" as="geometry" />
        </mxCell>
        <mxCell id="zz37QBjWHWpGYe9e6wSS-21" value="" style="endArrow=classic;html=1;rounded=0;entryX=0;entryY=0.25;entryDx=0;entryDy=0;" edge="1" parent="1" source="zz37QBjWHWpGYe9e6wSS-14" target="zz37QBjWHWpGYe9e6wSS-6">
          <mxGeometry width="50" height="50" relative="1" as="geometry">
            <mxPoint x="180" y="650" as="sourcePoint" />
            <mxPoint x="230" y="600" as="targetPoint" />
          </mxGeometry>
        </mxCell>
        <mxCell id="zz37QBjWHWpGYe9e6wSS-22" value="" style="endArrow=classic;html=1;rounded=0;exitX=0.6;exitY=0.983;exitDx=0;exitDy=0;exitPerimeter=0;entryX=1;entryY=0.5;entryDx=0;entryDy=0;" edge="1" parent="1" source="zz37QBjWHWpGYe9e6wSS-15" target="zz37QBjWHWpGYe9e6wSS-6">
          <mxGeometry width="50" height="50" relative="1" as="geometry">
            <mxPoint x="430" y="640" as="sourcePoint" />
            <mxPoint x="480" y="590" as="targetPoint" />
          </mxGeometry>
        </mxCell>
        <mxCell id="zz37QBjWHWpGYe9e6wSS-23" value="" style="endArrow=classic;html=1;rounded=0;exitX=0.038;exitY=0.813;exitDx=0;exitDy=0;exitPerimeter=0;entryX=1;entryY=0.5;entryDx=0;entryDy=0;" edge="1" parent="1" source="zz37QBjWHWpGYe9e6wSS-16" target="zz37QBjWHWpGYe9e6wSS-6">
          <mxGeometry width="50" height="50" relative="1" as="geometry">
            <mxPoint x="490" y="760" as="sourcePoint" />
            <mxPoint x="540" y="710" as="targetPoint" />
          </mxGeometry>
        </mxCell>
        <mxCell id="zz37QBjWHWpGYe9e6wSS-28" value="&lt;ul&gt;&lt;li&gt;int&lt;/li&gt;&lt;li&gt;string&lt;/li&gt;&lt;li&gt;bool&lt;/li&gt;&lt;li&gt;double&lt;/li&gt;&lt;li&gt;struct&lt;/li&gt;&lt;/ul&gt;" style="text;strokeColor=none;fillColor=none;html=1;whiteSpace=wrap;verticalAlign=middle;overflow=hidden;" vertex="1" parent="1">
          <mxGeometry x="425" y="720" width="100" height="100" as="geometry" />
        </mxCell>
        <mxCell id="zz37QBjWHWpGYe9e6wSS-31" value="" style="edgeStyle=orthogonalEdgeStyle;rounded=0;orthogonalLoop=1;jettySize=auto;html=1;" edge="1" parent="1" source="zz37QBjWHWpGYe9e6wSS-30" target="zz37QBjWHWpGYe9e6wSS-8">
          <mxGeometry relative="1" as="geometry" />
        </mxCell>
        <mxCell id="zz37QBjWHWpGYe9e6wSS-30" value="根据值的类型修改" style="rounded=1;whiteSpace=wrap;html=1;" vertex="1" parent="1">
          <mxGeometry x="260" y="730" width="120" height="60" as="geometry" />
        </mxCell>
        <mxCell id="zz37QBjWHWpGYe9e6wSS-32" value="" style="shape=flexArrow;endArrow=classic;html=1;rounded=0;entryX=0.5;entryY=0;entryDx=0;entryDy=0;exitX=0.5;exitY=1;exitDx=0;exitDy=0;" edge="1" parent="1" source="zz37QBjWHWpGYe9e6wSS-4" target="zz37QBjWHWpGYe9e6wSS-13">
          <mxGeometry width="50" height="50" relative="1" as="geometry">
            <mxPoint x="310" y="400" as="sourcePoint" />
            <mxPoint x="360" y="350" as="targetPoint" />
          </mxGeometry>
        </mxCell>
      </root>
    </mxGraphModel>
  </diagram>
</mxfile>
